<svg width="587" height="434" viewBox="0 0 587 434" fill="none" xmlns="http://www.w3.org/2000/svg">
<g clip-path="url(#clip0_71_363)">
<path d="M217.573 266.822L96.0595 292.435C92.5479 293.171 88.8877 292.484 85.882 290.525C82.8762 288.565 80.7704 285.494 80.0264 281.984L59.1748 183.059C58.4388 179.548 59.1257 175.887 61.0849 172.882C63.0441 169.876 66.1156 167.77 69.6255 167.026L191.139 141.413C194.651 140.677 198.311 141.364 201.317 143.323C204.323 145.282 206.429 148.354 207.173 151.864L228.024 250.789C228.76 254.3 228.073 257.96 226.114 260.966C224.155 263.972 221.083 266.078 217.573 266.822ZM69.9539 168.584C66.857 169.24 64.1468 171.099 62.4181 173.751C60.6894 176.403 60.0832 179.632 60.7327 182.731L81.5843 281.656C82.2407 284.753 84.0988 287.463 86.751 289.191C89.4031 290.92 92.6326 291.526 95.7311 290.877L217.245 265.264C220.342 264.607 223.052 262.749 224.781 260.097C226.51 257.445 227.116 254.215 226.466 251.117L205.615 152.192C204.958 149.095 203.1 146.385 200.448 144.656C197.796 142.928 194.566 142.322 191.468 142.971L69.9539 168.584Z" fill="#B8C9F0"/>
<path d="M183.59 174.031L122.263 186.958C121.726 187.083 121.162 186.999 120.685 186.723C120.208 186.448 119.853 186.002 119.692 185.475C119.619 185.2 119.602 184.913 119.643 184.632C119.684 184.35 119.782 184.08 119.931 183.838C120.08 183.595 120.276 183.386 120.509 183.222C120.741 183.058 121.005 182.943 121.283 182.884L183.71 169.726C186.147 171.1 185.377 173.655 183.589 174.032L183.59 174.031Z" fill="#CCCCCC"/>
<path d="M185.857 184.789L124.53 197.715C123.994 197.84 123.43 197.756 122.953 197.48C122.475 197.205 122.121 196.759 121.96 196.232C121.886 195.957 121.869 195.67 121.91 195.389C121.951 195.107 122.049 194.837 122.198 194.595C122.347 194.352 122.544 194.143 122.776 193.979C123.009 193.815 123.272 193.7 123.551 193.642L185.977 180.483C188.415 181.857 187.644 184.412 185.856 184.789L185.857 184.789Z" fill="#CCCCCC"/>
<path d="M112.564 206.634L93.8478 210.579C93.2366 210.708 92.5995 210.588 92.0763 210.247C91.5531 209.906 91.1865 209.371 91.0571 208.76L86.4016 186.674C86.2734 186.062 86.3929 185.425 86.734 184.902C87.075 184.379 87.6097 184.012 88.2206 183.883L106.937 179.938C107.548 179.81 108.185 179.929 108.708 180.27C109.231 180.611 109.598 181.146 109.728 181.757L114.383 203.844C114.511 204.455 114.392 205.092 114.051 205.615C113.71 206.138 113.175 206.505 112.564 206.634V206.634Z" fill="#CCCCCC"/>
<path d="M190.321 206.851L96.7256 226.58C96.1889 226.704 95.625 226.62 95.1478 226.345C94.6706 226.07 94.3157 225.623 94.1549 225.097C94.0814 224.822 94.0646 224.535 94.1056 224.253C94.1466 223.972 94.2445 223.702 94.3934 223.459C94.5423 223.217 94.739 223.007 94.9715 222.843C95.2041 222.68 95.4675 222.565 95.7459 222.506L190.442 202.546C192.88 203.919 192.109 206.474 190.321 206.851Z" fill="#CCCCCC"/>
<path d="M192.589 217.612L98.9937 237.34C98.457 237.464 97.8931 237.381 97.4159 237.105C96.9387 236.83 96.5838 236.384 96.423 235.857C96.3495 235.582 96.3327 235.295 96.3737 235.014C96.4147 234.732 96.5126 234.462 96.6615 234.219C96.8104 233.977 97.0071 233.768 97.2396 233.604C97.4721 233.44 97.7356 233.325 98.014 233.266L192.71 213.306C195.148 214.68 194.377 217.235 192.589 217.612Z" fill="#CCCCCC"/>
<path d="M194.856 228.365L101.26 248.093C100.724 248.218 100.16 248.134 99.6824 247.858C99.2052 247.583 98.8503 247.137 98.6895 246.61C98.616 246.335 98.5992 246.048 98.6402 245.767C98.6812 245.485 98.7791 245.215 98.928 244.973C99.0769 244.73 99.2736 244.521 99.5062 244.357C99.7387 244.193 100.002 244.078 100.281 244.019L194.977 224.059C197.414 225.433 196.644 227.988 194.856 228.365H194.856Z" fill="#CCCCCC"/>
<path d="M197.124 239.124L103.528 258.852C102.991 258.977 102.428 258.893 101.95 258.618C101.473 258.343 101.118 257.896 100.957 257.369C100.884 257.095 100.867 256.808 100.908 256.526C100.949 256.245 101.047 255.974 101.196 255.732C101.345 255.49 101.541 255.28 101.774 255.116C102.007 254.952 102.27 254.838 102.548 254.779L197.245 234.819C199.682 236.192 198.912 238.747 197.124 239.124Z" fill="#CCCCCC"/>
<path d="M199.39 249.878L105.795 269.606C105.258 269.731 104.694 269.647 104.217 269.372C103.74 269.097 103.385 268.65 103.224 268.123C103.151 267.849 103.134 267.562 103.175 267.28C103.216 266.999 103.314 266.728 103.463 266.486C103.612 266.244 103.808 266.034 104.041 265.87C104.273 265.706 104.537 265.592 104.815 265.533L199.511 245.573C201.949 246.946 201.179 249.501 199.39 249.878Z" fill="#CCCCCC"/>
<path d="M214.32 200.629C214.107 201.015 213.925 201.417 213.776 201.831L175.459 211.339L168.794 204.444L157.072 213.143L167.686 226.498C168.543 227.576 169.728 228.348 171.061 228.697C172.394 229.045 173.805 228.952 175.08 228.43L216.658 211.441C218.024 212.447 219.665 213.013 221.361 213.064C223.057 213.115 224.728 212.648 226.153 211.726C227.577 210.803 228.687 209.469 229.335 207.901C229.982 206.332 230.137 204.604 229.779 202.945C229.42 201.287 228.565 199.777 227.327 198.616C226.09 197.455 224.528 196.699 222.85 196.447C221.171 196.196 219.456 196.461 217.933 197.208C216.409 197.955 215.149 199.148 214.32 200.629L214.32 200.629Z" fill="#F6905A"/>
<path d="M83.5314 285.243C84.7259 284.874 85.8251 284.248 86.7514 283.408C87.6777 282.569 88.4086 281.536 88.8927 280.383C89.3767 279.231 89.6022 277.986 89.5532 276.737C89.5041 275.487 89.1818 274.264 88.6088 273.153L114.977 199.863L96.6653 196.617L76.504 269.68C74.7011 270.766 73.3593 272.476 72.7328 274.485C72.1063 276.495 72.2387 278.664 73.105 280.583C73.9712 282.501 75.511 284.035 77.4327 284.894C79.3543 285.753 81.5243 285.877 83.5314 285.243Z" fill="#F6905A"/>
<path d="M111.629 212.873L93.5482 205.933C93.0338 205.736 92.568 205.43 92.1825 205.036C91.797 204.643 91.5009 204.17 91.3143 203.652C91.1277 203.133 91.0551 202.581 91.1013 202.032C91.1475 201.483 91.3116 200.95 91.5822 200.47L101.067 183.653C102.093 181.028 104.118 178.916 106.698 177.781C109.278 176.646 112.202 176.58 114.831 177.598C117.459 178.615 119.577 180.634 120.72 183.21C121.863 185.786 121.938 188.711 120.929 191.342L116.745 210.127C116.625 210.665 116.391 211.171 116.058 211.61C115.725 212.049 115.301 212.411 114.815 212.671C114.33 212.932 113.794 213.085 113.244 213.119C112.694 213.154 112.143 213.07 111.629 212.873V212.873Z" fill="#3668D3"/>
<path d="M152.438 422.842H162.197L166.84 385.199L152.437 385.2L152.438 422.842Z" fill="#F6905A"/>
<path d="M149.949 419.657L169.168 419.656H169.169C170.778 419.656 172.37 419.972 173.856 420.588C175.342 421.204 176.693 422.106 177.83 423.243C178.967 424.38 179.87 425.731 180.485 427.217C181.101 428.703 181.418 430.295 181.418 431.904V432.302L149.949 432.303L149.949 419.657Z" fill="#1E408A"/>
<path d="M97.5107 422.842H107.269L111.913 385.199L97.5091 385.2L97.5107 422.842Z" fill="#F6905A"/>
<path d="M95.0211 419.657L114.241 419.656H114.242C115.85 419.656 117.443 419.972 118.929 420.588C120.415 421.204 121.765 422.106 122.903 423.243C124.04 424.38 124.942 425.731 125.558 427.217C126.173 428.703 126.49 430.295 126.49 431.904V432.302L95.0216 432.303L95.0211 419.657Z" fill="#1E408A"/>
<path d="M107.742 407.692H95.3913C94.9066 407.692 94.4269 407.593 93.9813 407.402C93.5357 407.211 93.1335 406.932 92.799 406.581C92.4644 406.231 92.2046 405.815 92.0351 405.361C91.8657 404.907 91.7902 404.423 91.8132 403.939L97.6796 277.899L98.0492 277.889L157.689 276.334L169.359 402.447C169.404 402.919 169.354 403.396 169.213 403.85C169.072 404.303 168.842 404.724 168.537 405.088C168.232 405.452 167.857 405.751 167.435 405.969C167.013 406.187 166.552 406.318 166.079 406.356L152.207 407.465C151.335 407.535 150.468 407.283 149.769 406.758C149.071 406.233 148.588 405.47 148.412 404.614L130.668 314.838C130.619 314.565 130.474 314.319 130.26 314.144C130.045 313.969 129.775 313.876 129.498 313.884H129.493C129.215 313.877 128.945 313.971 128.73 314.148C128.516 314.325 128.372 314.573 128.326 314.847L111.257 404.801C111.095 405.615 110.656 406.348 110.016 406.874C109.375 407.401 108.571 407.69 107.742 407.692Z" fill="#1E408A"/>
<path d="M130.365 165.487C141.163 165.487 149.917 156.733 149.917 145.935C149.917 135.137 141.163 126.383 130.365 126.383C119.567 126.383 110.813 135.137 110.813 145.935C110.813 156.733 119.567 165.487 130.365 165.487Z" fill="#F6905A"/>
<path d="M123.809 292.669C114.491 292.669 104.919 290.22 96.984 282.977C96.5618 282.595 96.2358 282.118 96.0325 281.585C95.8292 281.053 95.7545 280.48 95.8142 279.913C96.6635 272.282 100.783 232.881 98.4632 206.562C98.0104 201.646 98.7064 196.692 100.496 192.091C102.286 187.49 105.121 183.368 108.776 180.05C112.368 176.739 116.68 174.309 121.372 172.951C126.064 171.592 131.007 171.342 135.812 172.221H135.812C136.056 172.265 136.299 172.311 136.543 172.357C152.196 175.387 163.072 189.874 161.841 206.055C160.046 229.666 158.436 261.603 160.963 279.664C161.068 280.403 160.939 281.156 160.594 281.818C160.25 282.48 159.707 283.017 159.041 283.355C153.29 286.261 138.88 292.669 123.809 292.669Z" fill="#3668D3"/>
<path d="M149.322 214.279C148.863 213.974 148.476 213.574 148.186 213.105C147.896 212.636 147.711 212.111 147.643 211.564L145.261 192.467C144.505 189.751 144.856 186.846 146.239 184.389C147.621 181.932 149.921 180.123 152.635 179.359C155.349 178.596 158.254 178.939 160.715 180.315C163.176 181.69 164.991 183.985 165.763 186.697L173.609 204.338C173.832 204.842 173.945 205.387 173.939 205.938C173.933 206.489 173.808 207.033 173.573 207.531C173.338 208.029 172.999 208.471 172.578 208.827C172.157 209.182 171.664 209.442 171.133 209.59L152.476 214.782C151.945 214.93 151.388 214.962 150.844 214.875C150.3 214.788 149.781 214.585 149.322 214.279Z" fill="#3668D3"/>
<path d="M123.54 165.211C121.689 165.245 119.85 164.912 118.129 164.232C117.372 163.94 116.585 163.7 115.829 163.408C109.153 160.829 104.755 153.718 104.598 146.563C104.44 139.408 108.146 132.463 113.648 127.886C119.151 123.309 126.278 120.959 133.414 120.416C141.101 119.83 149.757 121.78 154.053 128.182C155.196 129.886 155.996 131.953 155.318 134.011C155.115 134.632 154.753 135.188 154.267 135.625C152.349 137.332 150.437 136.049 148.481 135.935C145.793 135.779 143.379 137.955 142.511 140.504C141.643 143.053 142.025 145.858 142.726 148.458C143.26 150.022 143.596 151.647 143.728 153.295C143.784 154.121 143.629 154.948 143.276 155.697C142.924 156.447 142.386 157.093 141.713 157.576C140.033 158.592 137.828 158.004 136.147 156.991C134.466 155.977 133.014 154.568 131.199 153.822C129.384 153.076 126.945 153.241 125.888 154.895C125.552 155.497 125.325 156.153 125.217 156.834C124.269 161.149 124.487 160.895 123.54 165.211V165.211Z" fill="#1E408A"/>
<path d="M394.356 138.513H270.172C266.584 138.509 263.144 137.082 260.607 134.545C258.07 132.008 256.643 128.568 256.639 124.98V23.8815C256.643 20.2936 258.07 16.8538 260.607 14.3168C263.144 11.7798 266.584 10.3527 270.172 10.3487H394.356C397.944 10.3527 401.383 11.7798 403.92 14.3168C406.457 16.8538 407.884 20.2936 407.888 23.8815V124.98C407.884 128.568 406.457 132.008 403.92 134.545C401.383 137.082 397.944 138.509 394.356 138.513ZM270.172 11.9408C267.006 11.9443 263.971 13.2035 261.732 15.4421C259.494 17.6806 258.234 20.7157 258.231 23.8815V124.98C258.234 128.146 259.494 131.181 261.732 133.419C263.971 135.658 267.006 136.917 270.172 136.921H394.356C397.521 136.917 400.557 135.658 402.795 133.419C405.034 131.181 406.293 128.146 406.296 124.98V23.8815C406.293 20.7157 405.034 17.6806 402.795 15.4421C400.557 13.2035 397.521 11.9443 394.356 11.9408H270.172Z" fill="#B8C9F0"/>
<path d="M380.24 40.7085H317.566C317.016 40.7196 316.481 40.5213 316.071 40.1535C315.661 39.7856 315.406 39.2758 315.357 38.727C315.342 38.443 315.384 38.1588 315.483 37.8918C315.581 37.6248 315.732 37.3806 315.928 37.1741C316.124 36.9676 316.359 36.8032 316.621 36.6908C316.882 36.5784 317.163 36.5205 317.448 36.5205H381.246C383.348 38.3673 382.067 40.7085 380.24 40.7085L380.24 40.7085Z" fill="#CCCCCC"/>
<path d="M380.24 51.7019H317.566C317.016 51.7131 316.481 51.5148 316.071 51.1469C315.661 50.7791 315.406 50.2693 315.357 49.7205C315.342 49.4365 315.384 49.1523 315.483 48.8853C315.581 48.6183 315.732 48.3741 315.928 48.1676C316.124 47.9611 316.359 47.7967 316.621 47.6843C316.882 47.5719 317.163 47.5139 317.448 47.5139H381.246C383.348 49.3608 382.067 51.7019 380.24 51.7019L380.24 51.7019Z" fill="#CCCCCC"/>
<path d="M304.018 57.9613H284.89C284.266 57.9607 283.667 57.7123 283.225 57.2707C282.784 56.8291 282.535 56.2303 282.535 55.6058V33.0337C282.535 32.4092 282.784 31.8104 283.225 31.3688C283.667 30.9272 284.266 30.6788 284.89 30.6782H304.018C304.642 30.6791 305.241 30.9275 305.682 31.3691C306.124 31.8106 306.372 32.4093 306.373 33.0337V55.6058C306.373 56.2303 306.124 56.8291 305.683 57.2707C305.241 57.7123 304.642 57.9607 304.018 57.9613Z" fill="#B8C9F0"/>
<path d="M380.058 74.2111H284.406C283.855 74.2223 283.321 74.0239 282.911 73.6561C282.5 73.2883 282.245 72.7785 282.197 72.2297C282.181 71.9456 282.224 71.6614 282.322 71.3945C282.42 71.1275 282.572 70.8833 282.768 70.6768C282.963 70.4703 283.199 70.3058 283.46 70.1935C283.722 70.0811 284.003 70.0231 284.288 70.0231H381.065C383.166 71.8699 381.886 74.2111 380.058 74.2111V74.2111Z" fill="#CCCCCC"/>
<path d="M380.058 85.2077H284.406C283.855 85.2189 283.321 85.0205 282.911 84.6527C282.5 84.2849 282.245 83.7751 282.197 83.2263C282.181 82.9423 282.224 82.658 282.322 82.3911C282.42 82.1241 282.572 81.8799 282.768 81.6734C282.963 81.4669 283.199 81.3024 283.46 81.1901C283.722 81.0777 284.003 81.0197 284.288 81.0197H381.065C383.166 82.8665 381.886 85.2078 380.058 85.2078V85.2077Z" fill="#CCCCCC"/>
<path d="M380.058 96.1972H284.406C283.855 96.2084 283.321 96.01 282.911 95.6422C282.5 95.2744 282.245 94.7646 282.197 94.2158C282.181 93.9317 282.224 93.6476 282.322 93.3806C282.42 93.1136 282.572 92.8694 282.768 92.6629C282.963 92.4564 283.199 92.2919 283.46 92.1796C283.722 92.0672 284.003 92.0092 284.288 92.0092H381.065C383.166 93.856 381.886 96.1972 380.058 96.1972V96.1972Z" fill="#CCCCCC"/>
<path d="M380.058 107.193H284.406C283.855 107.204 283.321 107.006 282.911 106.638C282.5 106.27 282.245 105.76 282.197 105.212C282.181 104.928 282.224 104.643 282.322 104.376C282.42 104.109 282.572 103.865 282.768 103.659C282.963 103.452 283.199 103.288 283.46 103.175C283.722 103.063 284.003 103.005 284.288 103.005H381.065C383.166 104.852 381.886 107.193 380.058 107.193V107.193Z" fill="#CCCCCC"/>
<path d="M380.058 118.183H284.406C283.855 118.195 283.321 117.996 282.911 117.628C282.5 117.261 282.245 116.751 282.197 116.202C282.181 115.918 282.224 115.634 282.322 115.367C282.42 115.1 282.572 114.856 282.768 114.649C282.963 114.443 283.199 114.278 283.46 114.166C283.722 114.053 284.003 113.995 284.288 113.995H381.065C383.166 115.842 381.886 118.183 380.058 118.183Z" fill="#CCCCCC"/>
<path d="M367.29 0C368.345 0.00120725 369.357 0.420942 370.103 1.16712C370.849 1.9133 371.269 2.925 371.27 3.98026V16.7171C371.269 17.7723 370.849 18.784 370.103 19.5302C369.357 20.2764 368.345 20.6961 367.29 20.6973H297.237C296.182 20.6961 295.17 20.2764 294.424 19.5302C293.678 18.784 293.258 17.7723 293.257 16.7171V3.98026C293.258 2.925 293.678 1.9133 294.424 1.16712C295.17 0.420942 296.182 0.00120725 297.237 0" fill="#3668D3"/>
<path d="M573.467 263.493H449.283C445.695 263.489 442.255 262.062 439.718 259.525C437.181 256.988 435.754 253.548 435.75 249.96V148.862C435.754 145.274 437.181 141.834 439.718 139.297C442.255 136.76 445.695 135.333 449.283 135.329H573.467C577.055 135.333 580.495 136.76 583.032 139.297C585.569 141.834 586.996 145.274 587 148.862V249.96C586.996 253.548 585.569 256.988 583.032 259.525C580.495 262.062 577.055 263.489 573.467 263.493ZM449.283 136.921C446.117 136.924 443.082 138.184 440.844 140.422C438.605 142.661 437.346 145.696 437.342 148.862V249.96C437.346 253.126 438.605 256.161 440.844 258.4C443.082 260.638 446.117 261.897 449.283 261.901H573.467C576.633 261.897 579.668 260.638 581.907 258.4C584.145 256.161 585.404 253.126 585.408 249.96V148.862C585.404 145.696 584.145 142.661 581.907 140.422C579.668 138.184 576.633 136.924 573.467 136.921H449.283Z" fill="#B8C9F0"/>
<path d="M559.352 165.689H496.678C496.127 165.7 495.593 165.501 495.182 165.134C494.772 164.766 494.517 164.256 494.468 163.707C494.453 163.423 494.496 163.139 494.594 162.872C494.692 162.605 494.844 162.361 495.039 162.154C495.235 161.948 495.471 161.783 495.732 161.671C495.993 161.558 496.275 161.5 496.559 161.5H560.358C562.46 163.347 561.179 165.689 559.351 165.689H559.352Z" fill="#B8C9F0"/>
<path d="M559.352 176.682H496.678C496.127 176.693 495.593 176.495 495.182 176.127C494.772 175.759 494.517 175.249 494.468 174.701C494.453 174.417 494.496 174.132 494.594 173.865C494.692 173.598 494.844 173.354 495.039 173.148C495.235 172.941 495.471 172.777 495.732 172.664C495.993 172.552 496.275 172.494 496.559 172.494H560.358C562.46 174.341 561.179 176.682 559.351 176.682H559.352Z" fill="#B8C9F0"/>
<path d="M483.129 182.941H464.002C463.377 182.941 462.778 182.692 462.337 182.251C461.895 181.809 461.647 181.21 461.646 180.586V158.014C461.647 157.389 461.895 156.79 462.337 156.349C462.778 155.907 463.377 155.659 464.002 155.658H483.129C483.754 155.659 484.352 155.908 484.794 156.349C485.235 156.791 485.484 157.389 485.485 158.014V180.586C485.484 181.21 485.236 181.809 484.794 182.251C484.353 182.692 483.754 182.941 483.129 182.941Z" fill="#CCCCCC"/>
<path d="M558.754 244.237H539.627C539.002 244.237 538.403 243.988 537.962 243.547C537.52 243.105 537.272 242.506 537.271 241.882V228.862C537.272 228.238 537.52 227.639 537.962 227.197C538.403 226.756 539.002 226.507 539.627 226.507H558.754C559.379 226.508 559.977 226.756 560.419 227.198C560.86 227.639 561.109 228.238 561.11 228.862V241.882C561.109 242.506 560.861 243.105 560.419 243.547C559.977 243.988 559.379 244.237 558.754 244.237Z" fill="#B8C9F0"/>
<path d="M559.17 199.191H463.518C462.967 199.202 462.432 199.004 462.022 198.636C461.612 198.268 461.357 197.759 461.308 197.21C461.293 196.926 461.336 196.641 461.434 196.374C461.532 196.108 461.683 195.863 461.879 195.657C462.075 195.45 462.311 195.286 462.572 195.173C462.833 195.061 463.115 195.003 463.399 195.003H560.176C562.278 196.85 560.997 199.191 559.17 199.191V199.191Z" fill="#CCCCCC"/>
<path d="M559.17 210.188H463.518C462.967 210.199 462.432 210.001 462.022 209.633C461.612 209.265 461.357 208.755 461.308 208.206C461.293 207.922 461.336 207.638 461.434 207.371C461.532 207.104 461.683 206.86 461.879 206.653C462.075 206.447 462.311 206.282 462.572 206.17C462.833 206.058 463.115 206 463.399 206H560.176C562.278 207.847 560.997 210.188 559.17 210.188V210.188Z" fill="#CCCCCC"/>
<path d="M559.17 221.177H463.518C462.967 221.188 462.432 220.99 462.022 220.622C461.612 220.254 461.357 219.745 461.308 219.196C461.293 218.912 461.336 218.628 461.434 218.361C461.532 218.094 461.683 217.849 461.879 217.643C462.075 217.436 462.311 217.272 462.572 217.16C462.833 217.047 463.115 216.989 463.399 216.989H560.176C562.278 218.836 560.997 221.177 559.17 221.177V221.177Z" fill="#CCCCCC"/>
<path d="M509.018 232.173H463.518C462.967 232.184 462.432 231.986 462.022 231.618C461.612 231.25 461.357 230.74 461.308 230.192C461.293 229.908 461.336 229.623 461.434 229.356C461.532 229.089 461.683 228.845 461.879 228.639C462.075 228.432 462.311 228.268 462.572 228.155C462.833 228.043 463.115 227.985 463.399 227.985H510.025C512.127 229.832 510.846 232.173 509.018 232.173V232.173Z" fill="#CCCCCC"/>
<path d="M509.018 243.163H463.518C462.967 243.175 462.432 242.976 462.022 242.608C461.612 242.241 461.357 241.731 461.308 241.182C461.293 240.898 461.336 240.614 461.434 240.347C461.532 240.08 461.683 239.836 461.879 239.629C462.075 239.423 462.311 239.258 462.572 239.146C462.833 239.033 463.115 238.975 463.399 238.975H510.025C512.127 240.822 510.846 243.163 509.018 243.163Z" fill="#CCCCCC"/>
<path d="M546.401 145.677H476.349C475.294 145.676 474.282 145.256 473.536 144.51C472.79 143.764 472.37 142.752 472.369 141.697V128.96C472.37 127.905 472.79 126.893 473.536 126.147C474.282 125.401 475.294 124.981 476.349 124.98H546.401C547.457 124.981 548.468 125.401 549.215 126.147C549.961 126.893 550.38 127.905 550.382 128.96V141.697C550.38 142.752 549.961 143.764 549.215 144.51C548.468 145.256 547.457 145.676 546.401 145.677Z" fill="#3668D3"/>
<path d="M304.092 433.052H0.796051C0.584925 433.052 0.382446 432.968 0.233157 432.819C0.0838688 432.669 0 432.467 0 432.256C0 432.045 0.0838688 431.842 0.233157 431.693C0.382446 431.544 0.584925 431.46 0.796051 431.46H304.092C304.303 431.46 304.505 431.544 304.654 431.693C304.804 431.842 304.888 432.045 304.888 432.256C304.888 432.467 304.804 432.669 304.654 432.819C304.505 432.968 304.303 433.052 304.092 433.052Z" fill="#B8C9F0"/>
<path d="M77.0289 23.7153C79.872 23.7153 82.1769 21.4105 82.1769 18.5673C82.1769 15.7242 79.872 13.4194 77.0289 13.4194C74.1857 13.4194 71.8809 15.7242 71.8809 18.5673C71.8809 21.4105 74.1857 23.7153 77.0289 23.7153Z" fill="white"/>
<path d="M77.0289 44.2322C79.872 44.2322 82.1769 41.9273 82.1769 39.0842C82.1769 36.2411 79.872 33.9362 77.0289 33.9362C74.1857 33.9362 71.8809 36.2411 71.8809 39.0842C71.8809 41.9273 74.1857 44.2322 77.0289 44.2322Z" fill="white"/>
<path d="M77.0289 64.749C79.872 64.749 82.1769 62.4442 82.1769 59.6011C82.1769 56.7579 79.872 54.4531 77.0289 54.4531C74.1857 54.4531 71.8809 56.7579 71.8809 59.6011C71.8809 62.4442 74.1857 64.749 77.0289 64.749Z" fill="white"/>
<path d="M77.0289 85.2659C79.872 85.2659 82.1769 82.9611 82.1769 80.1179C82.1769 77.2748 79.872 74.97 77.0289 74.97C74.1857 74.97 71.8809 77.2748 71.8809 80.1179C71.8809 82.9611 74.1857 85.2659 77.0289 85.2659Z" fill="white"/>
<path d="M98.5223 23.7153C101.365 23.7153 103.67 21.4105 103.67 18.5673C103.67 15.7242 101.365 13.4194 98.5223 13.4194C95.6792 13.4194 93.3743 15.7242 93.3743 18.5673C93.3743 21.4105 95.6792 23.7153 98.5223 23.7153Z" fill="white"/>
<path d="M98.5223 44.2322C101.365 44.2322 103.67 41.9273 103.67 39.0842C103.67 36.2411 101.365 33.9362 98.5223 33.9362C95.6792 33.9362 93.3743 36.2411 93.3743 39.0842C93.3743 41.9273 95.6792 44.2322 98.5223 44.2322Z" fill="white"/>
<path d="M98.5223 64.749C101.365 64.749 103.67 62.4442 103.67 59.6011C103.67 56.7579 101.365 54.4531 98.5223 54.4531C95.6792 54.4531 93.3743 56.7579 93.3743 59.6011C93.3743 62.4442 95.6792 64.749 98.5223 64.749Z" fill="white"/>
<path d="M98.5223 85.2659C101.365 85.2659 103.67 82.9611 103.67 80.1179C103.67 77.2748 101.365 74.97 98.5223 74.97C95.6792 74.97 93.3743 77.2748 93.3743 80.1179C93.3743 82.9611 95.6792 85.2659 98.5223 85.2659Z" fill="white"/>
<path d="M120.016 23.7153C122.859 23.7153 125.164 21.4105 125.164 18.5673C125.164 15.7242 122.859 13.4194 120.016 13.4194C117.173 13.4194 114.868 15.7242 114.868 18.5673C114.868 21.4105 117.173 23.7153 120.016 23.7153Z" fill="white"/>
<path d="M120.016 44.2322C122.859 44.2322 125.164 41.9273 125.164 39.0842C125.164 36.2411 122.859 33.9362 120.016 33.9362C117.173 33.9362 114.868 36.2411 114.868 39.0842C114.868 41.9273 117.173 44.2322 120.016 44.2322Z" fill="white"/>
<path d="M120.016 64.749C122.859 64.749 125.164 62.4442 125.164 59.6011C125.164 56.7579 122.859 54.4531 120.016 54.4531C117.173 54.4531 114.868 56.7579 114.868 59.6011C114.868 62.4442 117.173 64.749 120.016 64.749Z" fill="white"/>
<path d="M120.016 85.2659C122.859 85.2659 125.164 82.9611 125.164 80.1179C125.164 77.2748 122.859 74.97 120.016 74.97C117.173 74.97 114.868 77.2748 114.868 80.1179C114.868 82.9611 117.173 85.2659 120.016 85.2659Z" fill="white"/>
<path d="M141.509 23.7153C144.352 23.7153 146.657 21.4105 146.657 18.5673C146.657 15.7242 144.352 13.4194 141.509 13.4194C138.666 13.4194 136.361 15.7242 136.361 18.5673C136.361 21.4105 138.666 23.7153 141.509 23.7153Z" fill="white"/>
<path d="M141.509 44.2322C144.352 44.2322 146.657 41.9273 146.657 39.0842C146.657 36.2411 144.352 33.9362 141.509 33.9362C138.666 33.9362 136.361 36.2411 136.361 39.0842C136.361 41.9273 138.666 44.2322 141.509 44.2322Z" fill="white"/>
<path d="M141.509 64.749C144.352 64.749 146.657 62.4442 146.657 59.6011C146.657 56.7579 144.352 54.4531 141.509 54.4531C138.666 54.4531 136.361 56.7579 136.361 59.6011C136.361 62.4442 138.666 64.749 141.509 64.749Z" fill="white"/>
<path d="M141.509 85.2659C144.352 85.2659 146.657 82.9611 146.657 80.1179C146.657 77.2748 144.352 74.97 141.509 74.97C138.666 74.97 136.361 77.2748 136.361 80.1179C136.361 82.9611 138.666 85.2659 141.509 85.2659Z" fill="white"/>
<path d="M163.002 23.7153C165.846 23.7153 168.15 21.4105 168.15 18.5673C168.15 15.7242 165.846 13.4194 163.002 13.4194C160.159 13.4194 157.854 15.7242 157.854 18.5673C157.854 21.4105 160.159 23.7153 163.002 23.7153Z" fill="white"/>
<path d="M163.002 44.2322C165.846 44.2322 168.15 41.9273 168.15 39.0842C168.15 36.2411 165.846 33.9362 163.002 33.9362C160.159 33.9362 157.854 36.2411 157.854 39.0842C157.854 41.9273 160.159 44.2322 163.002 44.2322Z" fill="white"/>
<path d="M163.002 64.749C165.846 64.749 168.15 62.4442 168.15 59.6011C168.15 56.7579 165.846 54.4531 163.002 54.4531C160.159 54.4531 157.854 56.7579 157.854 59.6011C157.854 62.4442 160.159 64.749 163.002 64.749Z" fill="white"/>
<path d="M163.002 85.2659C165.846 85.2659 168.15 82.9611 168.15 80.1179C168.15 77.2748 165.846 74.97 163.002 74.97C160.159 74.97 157.854 77.2748 157.854 80.1179C157.854 82.9611 160.159 85.2659 163.002 85.2659Z" fill="white"/>
<path d="M184.496 23.7153C187.339 23.7153 189.644 21.4105 189.644 18.5673C189.644 15.7242 187.339 13.4194 184.496 13.4194C181.653 13.4194 179.348 15.7242 179.348 18.5673C179.348 21.4105 181.653 23.7153 184.496 23.7153Z" fill="white"/>
<path d="M184.496 44.2322C187.339 44.2322 189.644 41.9273 189.644 39.0842C189.644 36.2411 187.339 33.9362 184.496 33.9362C181.653 33.9362 179.348 36.2411 179.348 39.0842C179.348 41.9273 181.653 44.2322 184.496 44.2322Z" fill="white"/>
<path d="M184.496 64.749C187.339 64.749 189.644 62.4442 189.644 59.6011C189.644 56.7579 187.339 54.4531 184.496 54.4531C181.653 54.4531 179.348 56.7579 179.348 59.6011C179.348 62.4442 181.653 64.749 184.496 64.749Z" fill="white"/>
<path d="M184.496 85.2659C187.339 85.2659 189.644 82.9611 189.644 80.1179C189.644 77.2748 187.339 74.97 184.496 74.97C181.653 74.97 179.348 77.2748 179.348 80.1179C179.348 82.9611 181.653 85.2659 184.496 85.2659Z" fill="white"/>
<path d="M479.035 308.702C481.878 308.702 484.183 306.397 484.183 303.554C484.183 300.711 481.878 298.406 479.035 298.406C476.192 298.406 473.887 300.711 473.887 303.554C473.887 306.397 476.192 308.702 479.035 308.702Z" fill="white"/>
<path d="M479.035 329.219C481.878 329.219 484.183 326.914 484.183 324.071C484.183 321.227 481.878 318.923 479.035 318.923C476.192 318.923 473.887 321.227 473.887 324.071C473.887 326.914 476.192 329.219 479.035 329.219Z" fill="white"/>
<path d="M479.035 349.735C481.878 349.735 484.183 347.431 484.183 344.587C484.183 341.744 481.878 339.439 479.035 339.439C476.192 339.439 473.887 341.744 473.887 344.587C473.887 347.431 476.192 349.735 479.035 349.735Z" fill="white"/>
<path d="M500.528 308.702C503.371 308.702 505.676 306.397 505.676 303.554C505.676 300.711 503.371 298.406 500.528 298.406C497.685 298.406 495.38 300.711 495.38 303.554C495.38 306.397 497.685 308.702 500.528 308.702Z" fill="white"/>
<path d="M500.528 329.219C503.371 329.219 505.676 326.914 505.676 324.071C505.676 321.227 503.371 318.923 500.528 318.923C497.685 318.923 495.38 321.227 495.38 324.071C495.38 326.914 497.685 329.219 500.528 329.219Z" fill="white"/>
<path d="M500.528 349.735C503.371 349.735 505.676 347.431 505.676 344.587C505.676 341.744 503.371 339.439 500.528 339.439C497.685 339.439 495.38 341.744 495.38 344.587C495.38 347.431 497.685 349.735 500.528 349.735Z" fill="white"/>
<path d="M522.022 308.702C524.865 308.702 527.169 306.397 527.169 303.554C527.169 300.711 524.865 298.406 522.022 298.406C519.178 298.406 516.874 300.711 516.874 303.554C516.874 306.397 519.178 308.702 522.022 308.702Z" fill="white"/>
<path d="M522.022 329.219C524.865 329.219 527.169 326.914 527.169 324.071C527.169 321.227 524.865 318.923 522.022 318.923C519.178 318.923 516.874 321.227 516.874 324.071C516.874 326.914 519.178 329.219 522.022 329.219Z" fill="white"/>
<path d="M522.022 349.735C524.865 349.735 527.169 347.431 527.169 344.587C527.169 341.744 524.865 339.439 522.022 339.439C519.178 339.439 516.874 341.744 516.874 344.587C516.874 347.431 519.178 349.735 522.022 349.735Z" fill="white"/>
<path d="M543.515 308.702C546.358 308.702 548.663 306.397 548.663 303.554C548.663 300.711 546.358 298.406 543.515 298.406C540.672 298.406 538.367 300.711 538.367 303.554C538.367 306.397 540.672 308.702 543.515 308.702Z" fill="white"/>
<path d="M543.515 329.219C546.358 329.219 548.663 326.914 548.663 324.071C548.663 321.227 546.358 318.923 543.515 318.923C540.672 318.923 538.367 321.227 538.367 324.071C538.367 326.914 540.672 329.219 543.515 329.219Z" fill="white"/>
<path d="M543.515 349.735C546.358 349.735 548.663 347.431 548.663 344.587C548.663 341.744 546.358 339.439 543.515 339.439C540.672 339.439 538.367 341.744 538.367 344.587C538.367 347.431 540.672 349.735 543.515 349.735Z" fill="white"/>
</g>
<defs>
<clipPath id="clip0_71_363">
<rect width="587" height="433.052" fill="white"/>
</clipPath>
</defs>
</svg>
