<svg width="100" height="35" viewBox="0 0 100 35" fill="none" xmlns="http://www.w3.org/2000/svg">
<path d="M7.66807 13.3208C6.01311 13.3208 4.60494 13.9021 3.44357 15.0646C2.30155 16.2271 1.72086 17.6367 1.70151 19.2933V27.8669C1.70151 28.235 1.83216 28.545 2.09347 28.7969C2.35478 29.0585 2.66448 29.1892 3.02257 29.1892H3.06612C3.42421 29.1892 3.73391 29.0585 3.99522 28.7969C4.25653 28.545 4.38719 28.235 4.38719 27.8669V19.2933C4.39686 18.3826 4.71624 17.6076 5.34532 16.9682C5.98407 16.3289 6.75833 16.0092 7.66807 16.0092H8.49555C8.86332 16.0092 9.17785 15.8784 9.43916 15.6168C9.69079 15.3649 9.81661 15.0549 9.81661 14.6868V14.6577C9.81661 14.2896 9.69079 13.9748 9.43916 13.7132C9.17785 13.4516 8.86332 13.3208 8.49555 13.3208H7.66807Z" fill="#3A6AD4"/>
<path d="M12.7749 27.8669C12.7749 28.235 12.6443 28.545 12.383 28.7969C12.1217 29.0585 11.812 29.1892 11.4539 29.1892H11.4103C11.0522 29.1892 10.7425 29.0585 10.4812 28.7969C10.2199 28.545 10.0893 28.235 10.0893 27.8669V19.8745C10.0893 18.0726 10.728 16.5275 12.0055 15.239C13.283 13.9602 14.8267 13.3208 16.6365 13.3208C18.7947 13.3208 20.532 14.183 21.8482 15.9074C23.1547 14.183 24.8871 13.3208 27.0453 13.3208C28.8551 13.3208 30.3988 13.9602 31.6763 15.239C32.9538 16.5275 33.5926 18.0726 33.5926 19.8745V27.8669C33.5926 28.235 33.4668 28.545 33.2151 28.7969C32.9538 29.0585 32.6393 29.1892 32.2715 29.1892H32.2425C31.8747 29.1892 31.565 29.0585 31.3134 28.7969C31.0521 28.545 30.9214 28.235 30.9214 27.8669V19.8745C30.9214 18.8089 30.544 17.8983 29.7891 17.1426C29.0342 16.387 28.1196 16.0092 27.0453 16.0092C25.9807 16.0092 25.071 16.387 24.3161 17.1426C23.5612 17.8983 23.1838 18.8089 23.1838 19.8745V27.8669C23.1838 28.235 23.0531 28.545 22.7918 28.7969C22.5402 29.0585 22.2305 29.1892 21.8627 29.1892H21.8337C21.4659 29.1892 21.1514 29.0585 20.89 28.7969C20.6287 28.545 20.4981 28.235 20.4981 27.8669V19.8745C20.4981 18.8089 20.1206 17.8983 19.3657 17.1426C18.6108 16.387 17.7011 16.0092 16.6365 16.0092C15.5719 16.0092 14.6622 16.387 13.9073 17.1426C13.1524 17.8983 12.7749 18.8089 12.7749 19.8745V27.8669Z" fill="#3A6AD4"/>
<path d="M37.8574 27.8669C37.8574 28.235 37.7267 28.545 37.4654 28.7969C37.2041 29.0585 36.8944 29.1892 36.5363 29.1892H36.4928C36.1347 29.1892 35.825 29.0585 35.5637 28.7969C35.3024 28.545 35.1717 28.235 35.1717 27.8669V19.8745C35.1717 18.0726 35.8105 16.5275 37.088 15.239C38.3655 13.9602 39.9091 13.3208 41.7189 13.3208C43.8772 13.3208 45.6144 14.183 46.9306 15.9074C48.2372 14.183 49.9695 13.3208 52.1278 13.3208C53.9376 13.3208 55.4812 13.9602 56.7587 15.239C58.0363 16.5275 58.675 18.0726 58.675 19.8745V27.8669C58.675 28.235 58.5492 28.545 58.2976 28.7969C58.0363 29.0585 57.7217 29.1892 57.354 29.1892H57.3249C56.9571 29.1892 56.6474 29.0585 56.3958 28.7969C56.1345 28.545 56.0038 28.235 56.0038 27.8669V19.8745C56.0038 18.8089 55.6264 17.8983 54.8715 17.1426C54.1166 16.387 53.202 16.0092 52.1278 16.0092C51.0632 16.0092 50.1534 16.387 49.3985 17.1426C48.6436 17.8983 48.2662 18.8089 48.2662 19.8745V27.8669C48.2662 28.235 48.1355 28.545 47.8742 28.7969C47.6226 29.0585 47.3129 29.1892 46.9451 29.1892H46.9161C46.5483 29.1892 46.2338 29.0585 45.9725 28.7969C45.7112 28.545 45.5805 28.235 45.5805 27.8669V19.8745C45.5805 18.8089 45.2031 17.8983 44.4482 17.1426C43.6933 16.387 42.7835 16.0092 41.7189 16.0092C40.6544 16.0092 39.7446 16.387 38.9897 17.1426C38.2348 17.8983 37.8574 18.8089 37.8574 19.8745V27.8669Z" fill="#3A6AD4"/>
<path d="M68.1806 16.0383C69.6323 16.0383 70.8663 16.5517 71.8825 17.5786C72.9084 18.6055 73.4213 19.8455 73.4213 21.2987C73.4213 22.7421 72.9084 23.9773 71.8825 25.0042C70.8663 26.0311 69.6323 26.5446 68.1806 26.5446C66.7289 26.5446 65.4901 26.0311 64.4642 25.0042C63.448 23.9773 62.9399 22.7421 62.9399 21.2987C62.9399 19.8455 63.448 18.6055 64.4642 17.5786C65.4901 16.5517 66.7289 16.0383 68.1806 16.0383ZM61.5753 7.36295C61.2172 7.36295 60.9075 7.48889 60.6462 7.74077C60.3849 8.00234 60.2542 8.31718 60.2542 8.68532V21.2987C60.2639 23.4784 61.043 25.3384 62.5915 26.8788C64.1303 28.4191 65.9933 29.1893 68.1806 29.1893C70.3678 29.1893 72.2357 28.4143 73.7842 26.8642C75.3327 25.3142 76.107 23.4445 76.107 21.2551C76.107 19.0657 75.3327 17.1959 73.7842 15.6459C72.2357 14.0959 70.3678 13.3209 68.1806 13.3209C66.1772 13.3209 64.4303 13.9845 62.9399 15.3117V8.68532C62.9399 8.31718 62.8092 8.00234 62.5479 7.74077C62.2866 7.48889 61.9769 7.36295 61.6188 7.36295H61.5753Z" fill="#3A6AD4"/>
<path d="M83.2171 13.3208C81.5622 13.3208 80.154 13.9021 78.9926 15.0646C77.8506 16.2271 77.2699 17.6367 77.2506 19.2933V27.8669C77.2506 28.235 77.3812 28.545 77.6425 28.7969C77.9039 29.0585 78.2136 29.1892 78.5716 29.1892H78.6152C78.9733 29.1892 79.283 29.0585 79.5443 28.7969C79.8056 28.545 79.9363 28.235 79.9363 27.8669V19.2933C79.9459 18.3826 80.2653 17.6076 80.8944 16.9682C81.5331 16.3289 82.3074 16.0092 83.2171 16.0092H84.0446C84.4124 16.0092 84.7269 15.8784 84.9882 15.6168C85.2399 15.3649 85.3657 15.0549 85.3657 14.6868V14.6577C85.3657 14.2896 85.2399 13.9748 84.9882 13.7132C84.7269 13.4516 84.4124 13.3208 84.0446 13.3208H83.2171Z" fill="#3A6AD4"/>
<path d="M92.858 5.81775L98.1648 7.33707C98.1648 7.33707 98.7112 5.15891 99.0727 3.71801C99.4486 2.22 98.6752 0.548895 97.1346 0.10809C95.4166 -0.383482 94.0952 0.886742 93.7658 2.19951L92.858 5.81775Z" fill="#3A6AD4"/>
<path d="M89.722 29.6498L87.0674 28.8902C87.6837 30.5186 88.2748 32.9694 88.8479 33.1334L89.722 29.6498ZM89.722 29.6498L92.3767 30.4094C91.0805 31.4905 89.4211 33.2974 88.8479 33.1334L89.722 29.6498Z" fill="#3A6AD4"/>
<path d="M92.5578 7.00876L95.2124 7.76869L89.722 29.65L87.0673 28.8904L92.5578 7.00876ZM95.2126 7.76813L97.8672 8.52806L92.3767 30.4094L89.722 29.6498L95.2126 7.76813Z" fill="#2A2D34"/>
<path d="M54.1231 31.341V34.9459L23.6592 34.947C7.22721 34.9476 7.22721 31.3416 23.6592 31.3414L54.1231 31.341ZM54.1231 31.341V34.9459L84.5869 34.947C87.8941 34.9471 87.8941 31.3414 84.5869 31.3414L54.1231 31.341Z" fill="#3A6AD4"/>
<path d="M32.308 31.394V34.999L62.1836 35C78.2982 35.0006 78.2982 31.3946 62.1836 31.3944L32.308 31.394ZM32.308 31.394V34.999L2.4325 35C-0.810833 35.0001 -0.810833 31.3945 2.4325 31.3944L32.308 31.394Z" fill="#3A6AD4"/>
</svg>
