<svg width="179" height="63" viewBox="0 0 179 63" fill="none" xmlns="http://www.w3.org/2000/svg">
<path d="M13.8026 23.9775C10.8236 23.9775 8.28893 25.0238 6.19845 27.1163C4.14282 29.2089 3.09759 31.7461 3.06274 34.7279V50.1604C3.06274 50.823 3.29792 51.3811 3.76828 51.8344C4.23863 52.3053 4.7961 52.5407 5.44066 52.5407H5.51905C6.16361 52.5407 6.72107 52.3053 7.19143 51.8344C7.66179 51.3811 7.89697 50.823 7.89697 50.1604V34.7279C7.91439 33.0888 8.48926 31.6937 9.6216 30.5428C10.7714 29.392 12.165 28.8165 13.8026 28.8165H15.292C15.954 28.8165 16.5202 28.5811 16.9905 28.1103C17.4435 27.6569 17.6699 27.0989 17.6699 26.4362V26.3839C17.6699 25.7213 17.4435 25.1546 16.9905 24.6837C16.5202 24.2129 15.954 23.9775 15.292 23.9775H13.8026Z" fill="#EBEBEB"/>
<path d="M22.9948 50.1604C22.9948 50.823 22.7596 51.3811 22.2893 51.8344C21.8189 52.3053 21.2615 52.5407 20.6169 52.5407H20.5385C19.8939 52.5407 19.3365 52.3053 18.8661 51.8344C18.3958 51.3811 18.1606 50.823 18.1606 50.1604V35.7742C18.1606 32.5308 19.3103 29.7494 21.6099 27.4302C23.9094 25.1284 26.688 23.9775 29.9456 23.9775C33.8304 23.9775 36.9574 25.5295 39.3266 28.6334C41.6784 25.5295 44.7967 23.9775 48.6815 23.9775C51.9392 23.9775 54.7178 25.1284 57.0173 27.4302C59.3168 29.7494 60.4665 32.5308 60.4665 35.7742V50.1604C60.4665 50.823 60.2401 51.3811 59.7871 51.8344C59.3168 52.3053 58.7506 52.5407 58.0886 52.5407H58.0364C57.3744 52.5407 56.8169 52.3053 56.364 51.8344C55.8936 51.3811 55.6585 50.823 55.6585 50.1604V35.7742C55.6585 33.856 54.9791 32.2169 53.6202 30.8567C52.2614 29.4966 50.6152 28.8165 48.6815 28.8165C46.7652 28.8165 45.1277 29.4966 43.7689 30.8567C42.4101 32.2169 41.7307 33.856 41.7307 35.7742V50.1604C41.7307 50.823 41.4955 51.3811 41.0251 51.8344C40.5722 52.3053 40.0147 52.5407 39.3528 52.5407H39.3005C38.6385 52.5407 38.0723 52.3053 37.602 51.8344C37.1316 51.3811 36.8965 50.823 36.8965 50.1604V35.7742C36.8965 33.856 36.217 32.2169 34.8582 30.8567C33.4994 29.4966 31.8619 28.8165 29.9456 28.8165C28.0294 28.8165 26.3918 29.4966 25.033 30.8567C23.6742 32.2169 22.9948 33.856 22.9948 35.7742V50.1604Z" fill="#EBEBEB"/>
<path d="M68.1433 50.1604C68.1433 50.823 67.9081 51.3811 67.4378 51.8344C66.9674 52.3053 66.41 52.5407 65.7654 52.5407H65.687C65.0424 52.5407 64.485 52.3053 64.0146 51.8344C63.5443 51.3811 63.3091 50.823 63.3091 50.1604V35.7742C63.3091 32.5308 64.4588 29.7494 66.7584 27.4302C69.0579 25.1284 71.8365 23.9775 75.0941 23.9775C78.9789 23.9775 82.1059 25.5295 84.4751 28.6334C86.8269 25.5295 89.9452 23.9775 93.83 23.9775C97.0877 23.9775 99.8663 25.1284 102.166 27.4302C104.465 29.7494 105.615 32.5308 105.615 35.7742V50.1604C105.615 50.823 105.389 51.3811 104.936 51.8344C104.465 52.3053 103.899 52.5407 103.237 52.5407H103.185C102.523 52.5407 101.965 52.3053 101.513 51.8344C101.042 51.3811 100.807 50.823 100.807 50.1604V35.7742C100.807 33.856 100.128 32.2169 98.7688 30.8567C97.4099 29.4966 95.7637 28.8165 93.83 28.8165C91.9137 28.8165 90.2762 29.4966 88.9174 30.8567C87.5586 32.2169 86.8792 33.856 86.8792 35.7742V50.1604C86.8792 50.823 86.644 51.3811 86.1737 51.8344C85.7207 52.3053 85.1633 52.5407 84.5013 52.5407H84.449C83.787 52.5407 83.2209 52.3053 82.7505 51.8344C82.2801 51.3811 82.045 50.823 82.045 50.1604V35.7742C82.045 33.856 81.3656 32.2169 80.0068 30.8567C78.6479 29.4966 77.0104 28.8165 75.0941 28.8165C73.1779 28.8165 71.5403 29.4966 70.1815 30.8567C68.8227 32.2169 68.1433 33.856 68.1433 35.7742V50.1604Z" fill="#EBEBEB"/>
<path d="M122.725 28.8689C125.338 28.8689 127.559 29.7931 129.389 31.6415C131.235 33.4899 132.158 35.7219 132.158 38.3376C132.158 40.9358 131.235 43.1592 129.389 45.0076C127.559 46.856 125.338 47.7802 122.725 47.7802C120.112 47.7802 117.882 46.856 116.036 45.0076C114.206 43.1592 113.292 40.9358 113.292 38.3376C113.292 35.7219 114.206 33.4899 116.036 31.6415C117.882 29.7931 120.112 28.8689 122.725 28.8689ZM110.836 13.2533C110.191 13.2533 109.634 13.48 109.163 13.9334C108.693 14.4042 108.458 14.9709 108.458 15.6336V38.3376C108.475 42.2611 109.877 45.6092 112.665 48.3818C115.435 51.1544 118.788 52.5407 122.725 52.5407C126.662 52.5407 130.024 51.1457 132.812 48.3556C135.599 45.5656 136.993 42.2001 136.993 38.2591C136.993 34.3182 135.599 30.9527 132.812 28.1626C130.024 25.3726 126.662 23.9776 122.725 23.9776C119.119 23.9776 115.975 25.1721 113.292 27.561V15.6336C113.292 14.9709 113.057 14.4042 112.586 13.9334C112.116 13.48 111.559 13.2533 110.914 13.2533H110.836Z" fill="#EBEBEB"/>
<path d="M149.791 23.9775C146.812 23.9775 144.277 25.0238 142.187 27.1163C140.131 29.2089 139.086 31.7461 139.051 34.7279V50.1604C139.051 50.823 139.286 51.3811 139.757 51.8344C140.227 52.3053 140.784 52.5407 141.429 52.5407H141.507C142.152 52.5407 142.709 52.3053 143.18 51.8344C143.65 51.3811 143.885 50.823 143.885 50.1604V34.7279C143.903 33.0888 144.478 31.6937 145.61 30.5428C146.76 29.392 148.153 28.8165 149.791 28.8165H151.28C151.942 28.8165 152.508 28.5811 152.979 28.1103C153.432 27.6569 153.658 27.0989 153.658 26.4362V26.3839C153.658 25.7213 153.432 25.1546 152.979 24.6837C152.508 24.2129 151.942 23.9775 151.28 23.9775H149.791Z" fill="#EBEBEB"/>
<path d="M167.144 10.472L176.697 13.2067C176.697 13.2067 177.68 9.28603 178.331 6.69241C179.008 3.99601 177.615 0.988011 174.842 0.194562C171.75 -0.690267 169.371 1.59614 168.778 3.95912L167.144 10.472Z" fill="#EBEBEB"/>
<path d="M161.5 53.3697L156.721 52.0024C157.831 54.9334 158.895 59.3449 159.926 59.6401L161.5 53.3697ZM161.5 53.3697L166.278 54.737C163.945 56.6829 160.958 59.9352 159.926 59.6401L161.5 53.3697Z" fill="#EBEBEB"/>
<path d="M166.604 12.6158L171.382 13.9836L161.5 53.37L156.721 52.0027L166.604 12.6158ZM171.383 13.9826L176.161 15.3505L166.278 54.7369L161.5 53.3696L171.383 13.9826Z" fill="#2A2D34"/>
<path d="M97.4215 56.4138V62.9027L42.5866 62.9046C13.009 62.9056 13.009 56.4149 42.5866 56.4145L97.4215 56.4138ZM97.4215 56.4138V62.9027L152.256 62.9046C158.209 62.9047 158.209 56.4146 152.256 56.4145L97.4215 56.4138Z" fill="#EBEBEB"/>
<path d="M58.1545 56.5093V62.9981L111.93 63C140.937 63.0011 140.937 56.5103 111.93 56.51L58.1545 56.5093ZM58.1545 56.5093V62.9981L4.3785 63C-1.4595 63.0002 -1.4595 56.5101 4.3785 56.51L58.1545 56.5093Z" fill="#EBEBEB"/>
</svg>
