<svg width="100" height="35" viewBox="0 0 100 35" fill="none" xmlns="http://www.w3.org/2000/svg">
<path d="M7.6681 13.3209C6.01314 13.3209 4.60497 13.9021 3.4436 15.0646C2.30158 16.2272 1.72089 17.6367 1.70154 19.2933V27.8669C1.70154 28.235 1.83219 28.5451 2.0935 28.7969C2.35481 29.0585 2.66451 29.1893 3.0226 29.1893H3.06615C3.42424 29.1893 3.73394 29.0585 3.99525 28.7969C4.25656 28.5451 4.38722 28.235 4.38722 27.8669V19.2933C4.3969 18.3827 4.71627 17.6077 5.34535 16.9683C5.98411 16.3289 6.75836 16.0092 7.6681 16.0092H8.49558C8.86335 16.0092 9.17788 15.8784 9.43919 15.6168C9.69082 15.365 9.81664 15.055 9.81664 14.6868V14.6578C9.81664 14.2896 9.69082 13.9748 9.43919 13.7132C9.17788 13.4516 8.86335 13.3209 8.49558 13.3209H7.6681Z" fill="#EBEBEB"/>
<path d="M12.7749 27.8669C12.7749 28.235 12.6443 28.5451 12.3829 28.7969C12.1216 29.0585 11.8119 29.1893 11.4538 29.1893H11.4103C11.0522 29.1893 10.7425 29.0585 10.4812 28.7969C10.2199 28.5451 10.0892 28.235 10.0892 27.8669V19.8746C10.0892 18.0727 10.728 16.5275 12.0055 15.239C13.283 13.9602 14.8267 13.3209 16.6365 13.3209C18.7947 13.3209 20.5319 14.1831 21.8481 15.9075C23.1547 14.1831 24.8871 13.3209 27.0453 13.3209C28.8551 13.3209 30.3988 13.9602 31.6763 15.239C32.9538 16.5275 33.5925 18.0727 33.5925 19.8746V27.8669C33.5925 28.235 33.4667 28.5451 33.2151 28.7969C32.9538 29.0585 32.6393 29.1893 32.2715 29.1893H32.2425C31.8747 29.1893 31.565 29.0585 31.3134 28.7969C31.052 28.5451 30.9214 28.235 30.9214 27.8669V19.8746C30.9214 18.8089 30.5439 17.8983 29.789 17.1427C29.0342 16.387 28.1196 16.0092 27.0453 16.0092C25.9807 16.0092 25.071 16.387 24.3161 17.1427C23.5612 17.8983 23.1837 18.8089 23.1837 19.8746V27.8669C23.1837 28.235 23.0531 28.5451 22.7918 28.7969C22.5401 29.0585 22.2304 29.1893 21.8627 29.1893H21.8336C21.4659 29.1893 21.1513 29.0585 20.89 28.7969C20.6287 28.5451 20.498 28.235 20.498 27.8669V19.8746C20.498 18.8089 20.1206 17.8983 19.3657 17.1427C18.6108 16.387 17.7011 16.0092 16.6365 16.0092C15.5719 16.0092 14.6621 16.387 13.9073 17.1427C13.1524 17.8983 12.7749 18.8089 12.7749 19.8746V27.8669Z" fill="#EBEBEB"/>
<path d="M37.8574 27.8669C37.8574 28.235 37.7268 28.5451 37.4655 28.7969C37.2042 29.0585 36.8945 29.1893 36.5364 29.1893H36.4928C36.1347 29.1893 35.825 29.0585 35.5637 28.7969C35.3024 28.5451 35.1718 28.235 35.1718 27.8669V19.8746C35.1718 18.0727 35.8105 16.5275 37.088 15.239C38.3655 13.9602 39.9092 13.3209 41.719 13.3209C43.8772 13.3209 45.6144 14.1831 46.9307 15.9075C48.2372 14.1831 49.9696 13.3209 52.1278 13.3209C53.9376 13.3209 55.4813 13.9602 56.7588 15.239C58.0363 16.5275 58.6751 18.0727 58.6751 19.8746V27.8669C58.6751 28.235 58.5493 28.5451 58.2976 28.7969C58.0363 29.0585 57.7218 29.1893 57.354 29.1893H57.325C56.9572 29.1893 56.6475 29.0585 56.3959 28.7969C56.1346 28.5451 56.0039 28.235 56.0039 27.8669V19.8746C56.0039 18.8089 55.6265 17.8983 54.8716 17.1427C54.1167 16.387 53.2021 16.0092 52.1278 16.0092C51.0632 16.0092 50.1535 16.387 49.3986 17.1427C48.6437 17.8983 48.2663 18.8089 48.2663 19.8746V27.8669C48.2663 28.235 48.1356 28.5451 47.8743 28.7969C47.6227 29.0585 47.313 29.1893 46.9452 29.1893H46.9162C46.5484 29.1893 46.2338 29.0585 45.9725 28.7969C45.7112 28.5451 45.5806 28.235 45.5806 27.8669V19.8746C45.5806 18.8089 45.2031 17.8983 44.4482 17.1427C43.6933 16.387 42.7836 16.0092 41.719 16.0092C40.6544 16.0092 39.7447 16.387 38.9898 17.1427C38.2349 17.8983 37.8574 18.8089 37.8574 19.8746V27.8669Z" fill="#EBEBEB"/>
<path d="M68.1807 16.0383C69.6324 16.0383 70.8663 16.5517 71.8825 17.5786C72.9084 18.6055 73.4214 19.8456 73.4214 21.2987C73.4214 22.7422 72.9084 23.9773 71.8825 25.0042C70.8663 26.0311 69.6324 26.5446 68.1807 26.5446C66.7289 26.5446 65.4901 26.0311 64.4643 25.0042C63.4481 23.9773 62.94 22.7422 62.94 21.2987C62.94 19.8456 63.4481 18.6055 64.4643 17.5786C65.4901 16.5517 66.7289 16.0383 68.1807 16.0383V16.0383ZM61.5753 7.36298C61.2172 7.36298 60.9075 7.48892 60.6462 7.7408C60.3849 8.00237 60.2543 8.31721 60.2543 8.68535V21.2987C60.264 23.4784 61.043 25.3385 62.5915 26.8788C64.1304 28.4192 65.9934 29.1893 68.1807 29.1893C70.3679 29.1893 72.2358 28.4143 73.7843 26.8643C75.3328 25.3143 76.107 23.4445 76.107 21.2551C76.107 19.0657 75.3328 17.196 73.7843 15.6459C72.2358 14.0959 70.3679 13.3209 68.1807 13.3209C66.1773 13.3209 64.4304 13.9845 62.94 15.3117V8.68535C62.94 8.31721 62.8093 8.00237 62.548 7.7408C62.2867 7.48892 61.977 7.36298 61.6189 7.36298H61.5753Z" fill="#EBEBEB"/>
<path d="M83.2172 13.3209C81.5622 13.3209 80.154 13.9021 78.9927 15.0646C77.8507 16.2272 77.27 17.6367 77.2506 19.2933V27.8669C77.2506 28.235 77.3813 28.5451 77.6426 28.7969C77.9039 29.0585 78.2136 29.1893 78.5717 29.1893H78.6152C78.9733 29.1893 79.283 29.0585 79.5443 28.7969C79.8056 28.5451 79.9363 28.235 79.9363 27.8669V19.2933C79.946 18.3827 80.2653 17.6077 80.8944 16.9683C81.5332 16.3289 82.3074 16.0092 83.2172 16.0092H84.0447C84.4124 16.0092 84.727 15.8784 84.9883 15.6168C85.2399 15.365 85.3657 15.055 85.3657 14.6868V14.6578C85.3657 14.2896 85.2399 13.9748 84.9883 13.7132C84.727 13.4516 84.4124 13.3209 84.0447 13.3209H83.2172Z" fill="#EBEBEB"/>
<path d="M92.858 5.81775L98.1649 7.33707C98.1649 7.33707 98.7112 5.15891 99.0728 3.71801C99.4487 2.22 98.6752 0.548895 97.1347 0.10809C95.4167 -0.383482 94.0952 0.886742 93.7658 2.19951L92.858 5.81775Z" fill="#EBEBEB"/>
<path d="M89.7221 29.6499L87.0674 28.8903C87.6838 30.5186 88.2748 32.9694 88.848 33.1334L89.7221 29.6499ZM89.7221 29.6499L92.3768 30.4094C91.0805 31.4905 89.4211 33.2974 88.848 33.1334L89.7221 29.6499Z" fill="#EBEBEB"/>
<path d="M92.5578 7.00873L95.2124 7.76866L89.722 29.65L87.0673 28.8904L92.5578 7.00873ZM95.2126 7.7681L97.8672 8.52803L92.3767 30.4093L89.722 29.6498L95.2126 7.7681Z" fill="#2A2D34"/>
<path d="M54.1231 31.341V34.9459L23.6592 34.947C7.22721 34.9476 7.22721 31.3416 23.6592 31.3414L54.1231 31.341ZM54.1231 31.341V34.9459L84.5869 34.947C87.8941 34.9471 87.8941 31.3414 84.5869 31.3414L54.1231 31.341Z" fill="#EBEBEB"/>
<path d="M32.308 31.394V34.999L62.1836 35C78.2982 35.0006 78.2982 31.3946 62.1836 31.3944L32.308 31.394ZM32.308 31.394V34.999L2.4325 35C-0.810833 35.0001 -0.810833 31.3945 2.4325 31.3944L32.308 31.394Z" fill="#EBEBEB"/>
</svg>
