<?xml version="1.0" encoding="UTF-8" standalone="no"?>
<!-- Created with Inkscape (http://www.inkscape.org/) -->

<svg
   sodipodi:docname="rmmbr_v3.svg"
   inkscape:version="1.1.1 (3bf5ae0d25, 2021-09-20, custom)"
   id="svg5"
   version="1.1"
   viewBox="0 0 990.6598 349.29972"
   height="1320.1879"
   width="3744.2261"
   xmlns:inkscape="http://www.inkscape.org/namespaces/inkscape"
   xmlns:sodipodi="http://sodipodi.sourceforge.net/DTD/sodipodi-0.dtd"
   xmlns="http://www.w3.org/2000/svg"
   xmlns:svg="http://www.w3.org/2000/svg">
  <sodipodi:namedview
     id="namedview7"
     pagecolor="#ffffff"
     bordercolor="#999999"
     borderopacity="1"
     inkscape:pageshadow="0"
     inkscape:pageopacity="0"
     inkscape:pagecheckerboard="false"
     inkscape:document-units="pt"
     showgrid="false"
     borderlayer="false"
     units="px"
     width="3200px"
     inkscape:zoom="0.044194174"
     inkscape:cx="-4310.5229"
     inkscape:cy="316.78384"
     inkscape:window-width="1366"
     inkscape:window-height="727"
     inkscape:window-x="0"
     inkscape:window-y="41"
     inkscape:window-maximized="1"
     inkscape:current-layer="text1245"
     inkscape:snap-global="true"
     inkscape:object-paths="true"
     inkscape:snap-intersection-paths="true"
     inkscape:snap-smooth-nodes="true"
     inkscape:snap-midpoints="true"
     inkscape:snap-object-midpoints="true"
     inkscape:snap-center="true"
     inkscape:snap-text-baseline="true"
     inkscape:snap-bbox="true"
     inkscape:bbox-paths="true"
     inkscape:bbox-nodes="true"
     inkscape:snap-bbox-edge-midpoints="true"
     inkscape:snap-bbox-midpoints="true"
     fit-margin-top="0"
     fit-margin-left="0"
     fit-margin-right="0"
     fit-margin-bottom="0" />
  <defs
     id="defs2" />
  <g
     inkscape:label="Layer 1"
     inkscape:groupmode="layer"
     id="layer1"
     transform="translate(-261.56906,-219.18951)">
    <g
       aria-label="rmmbr"
       id="text1245"
       style="font-size:297.01px;font-family:Milkshake;-inkscape-font-specification:Milkshake;letter-spacing:-13.2292px;fill:#3a6ad4;stroke-width:1.58749;stroke-linecap:round;paint-order:fill markers stroke">
      <path
         d="m 338.17211,352.13169 q -24.79917,0 -42.2021,17.40293 -17.11288,17.40293 -17.40293,42.2021 v 85.56441 q 0,5.51093 3.91566,9.28156 3.91566,3.91566 9.28156,3.91566 h 0.43507 q 5.36591,0 9.28157,-3.91566 3.91566,-3.77063 3.91566,-9.28156 v -85.56441 q 0.14502,-13.63229 9.57161,-23.2039 9.57161,-9.57162 23.2039,-9.57162 h 8.2664 q 5.51092,0 9.42658,-3.91566 3.77064,-3.77063 3.77064,-9.28156 v -0.29005 q 0,-5.51092 -3.77064,-9.42658 -3.91566,-3.91566 -9.42658,-3.91566 z"
         style="font-family:'Typo Round Regular Demo';-inkscape-font-specification:'Typo Round Regular Demo'"
         id="path29698" />
      <path
         d="m 389.18873,497.30113 q 0,5.51093 -3.91566,9.28156 -3.91566,3.91566 -9.28156,3.91566 h -0.43507 q -5.36591,0 -9.28157,-3.91566 -3.91565,-3.77063 -3.91565,-9.28156 V 417.5377 q 0,-26.97454 19.14322,-46.26279 19.14322,-19.14322 46.26279,-19.14322 32.34044,0 52.06376,25.81434 19.5783,-25.81434 51.91875,-25.81434 27.11956,0 46.26279,19.14322 19.14322,19.28825 19.14322,46.26279 v 79.76343 q 0,5.51093 -3.77064,9.28156 -3.91565,3.91566 -9.42658,3.91566 h -0.29005 q -5.51093,0 -9.28156,-3.91566 -3.91566,-3.77063 -3.91566,-9.28156 V 417.5377 q 0,-15.95269 -11.31191,-27.26459 -11.3119,-11.31191 -27.40961,-11.31191 -15.95269,0 -27.26459,11.31191 -11.31191,11.3119 -11.31191,27.26459 v 79.76343 q 0,5.51093 -3.91566,9.28156 -3.77063,3.91566 -9.28156,3.91566 h -0.29005 q -5.51093,0 -9.42659,-3.91566 -3.91566,-3.77063 -3.91566,-9.28156 V 417.5377 q 0,-15.95269 -11.3119,-27.26459 -11.31191,-11.31191 -27.26459,-11.31191 -15.95269,0 -27.26459,11.31191 -11.31191,11.3119 -11.31191,27.26459 z"
         style="font-family:'Typo Round Regular Demo';-inkscape-font-specification:'Typo Round Regular Demo'"
         id="path29700" />
      <path
         d="m 639.75893,497.30113 q 0,5.51093 -3.91566,9.28156 -3.91566,3.91566 -9.28156,3.91566 h -0.43507 q -5.36591,0 -9.28157,-3.91566 -3.91566,-3.77063 -3.91566,-9.28156 V 417.5377 q 0,-26.97454 19.14323,-46.26279 19.14322,-19.14322 46.26279,-19.14322 32.34044,0 52.06376,25.81434 19.5783,-25.81434 51.91874,-25.81434 27.11957,0 46.26279,19.14322 19.14323,19.28825 19.14323,46.26279 v 79.76343 q 0,5.51093 -3.77064,9.28156 -3.91566,3.91566 -9.42658,3.91566 h -0.29005 q -5.51093,0 -9.28157,-3.91566 -3.91566,-3.77063 -3.91566,-9.28156 V 417.5377 q 0,-15.95269 -11.3119,-27.26459 -11.3119,-11.31191 -27.40962,-11.31191 -15.95268,0 -27.26459,11.31191 -11.3119,11.3119 -11.3119,27.26459 v 79.76343 q 0,5.51093 -3.91566,9.28156 -3.77064,3.91566 -9.28156,3.91566 h -0.29005 q -5.51093,0 -9.42659,-3.91566 -3.91566,-3.77063 -3.91566,-9.28156 V 417.5377 q 0,-15.95269 -11.3119,-27.26459 -11.31191,-11.31191 -27.26459,-11.31191 -15.95269,0 -27.26459,11.31191 -11.31191,11.3119 -11.31191,27.26459 z"
         style="font-family:'Typo Round Regular Demo';-inkscape-font-specification:'Typo Round Regular Demo'"
         id="path29702" />
      <path
         d="m 942.68297,379.25125 q 21.75366,0 36.98122,15.37259 15.37259,15.37259 15.37259,37.12625 0,21.60864 -15.37259,36.98123 -15.22756,15.37259 -36.98122,15.37259 -21.75367,0 -37.12625,-15.37259 -15.22757,-15.37259 -15.22757,-36.98123 0,-21.75366 15.22757,-37.12625 15.37258,-15.37259 37.12625,-15.37259 z m -65.98611,-86.57958 q -5.36591,0 -9.28157,3.77064 -3.91566,3.91566 -3.91566,9.42659 v 125.88119 q 0.14503,32.6305 23.34894,55.68938 23.05888,23.05888 55.8344,23.05888 32.77552,0 55.97942,-23.2039 23.20391,-23.20391 23.20391,-55.97943 0,-32.77552 -23.20391,-55.97943 -23.2039,-23.2039 -55.97942,-23.2039 -30.02006,0 -52.35382,19.86834 V 305.8689 q 0,-5.51093 -3.91566,-9.42659 -3.91566,-3.77064 -9.28156,-3.77064 z"
         style="font-family:'Typo Round Regular Demo';-inkscape-font-specification:'Typo Round Regular Demo'"
         id="path29704" />
      <path
         d="m 1092.8963,352.13169 q -24.7992,0 -42.2021,17.40293 -17.1129,17.40293 -17.4029,42.2021 v 85.56441 q 0,5.51093 3.9156,9.28156 3.9157,3.91566 9.2816,3.91566 h 0.4351 q 5.3659,0 9.2815,-3.91566 3.9157,-3.77063 3.9157,-9.28156 v -85.56441 q 0.145,-13.63229 9.5716,-23.2039 9.5716,-9.57162 23.2039,-9.57162 h 8.2664 q 5.5109,0 9.4266,-3.91566 3.7706,-3.77063 3.7706,-9.28156 v -0.29005 q 0,-5.51092 -3.7706,-9.42658 -3.9157,-3.91566 -9.4266,-3.91566 z"
         style="font-family:'Typo Round Regular Demo';-inkscape-font-specification:'Typo Round Regular Demo'"
         id="path29706" />
    </g>
    <g
       id="g12449"
       transform="translate(975.18277)">
      <path
         style="fill:#3a6ad4;fill-opacity:1;stroke:none;stroke-width:0.276026px;stroke-linecap:butt;stroke-linejoin:miter;stroke-opacity:1"
         d="m 214.02326,277.25064 53.01489,15.16279 c 0,0 5.45767,-21.7381 9.06951,-36.11824 3.75499,-14.95006 -3.97155,-31.62771 -19.36153,-36.02694 -17.16237,-4.90588 -30.36356,7.77094 -33.65423,20.87236 z"
         id="path903"
         sodipodi:nodetypes="ccsscc" />
      <path
         id="path19759"
         style="fill:#3a6ad4;fill-opacity:1;stroke:none;stroke-width:1.5875;stroke-linecap:round;paint-order:fill markers stroke"
         d="m 182.69559,515.09406 -26.51993,-7.58074 c 6.15758,16.25077 12.06236,40.7098 17.78787,42.34643 z m 0,0 26.51993,7.58074 c -12.94915,10.7891 -29.52648,28.8216 -35.25199,27.18495 z" />
      <path
         id="path19860"
         style="fill:#292c33;fill-opacity:1;stroke:none;stroke-width:0.264581px;stroke-linecap:butt;stroke-linejoin:miter;stroke-opacity:1"
         d="m 211.02493,289.13665 26.51914,7.58413 -54.84907,218.37535 -26.51993,-7.58075 z m 26.52056,7.5785 26.51914,7.58414 -54.84907,218.37534 -26.51993,-7.58074 z" />
      <path
         id="path48289"
         style="fill:#3a6ad4;fill-opacity:1;stroke:none;stroke-width:5.46805;stroke-linecap:round;stroke-miterlimit:4;stroke-dasharray:none;paint-order:fill markers stroke"
         d="m -172.93252,531.9725 v 35.97704 l -304.32933,0.0105 c -164.15301,0.006 -164.15301,-35.98165 0,-35.98366 z m 0,0 v 35.97704 l 304.32933,0.0105 c 33.03847,10e-4 33.03847,-35.98324 0,-35.98366 z"
         sodipodi:nodetypes="ccccccccsc" />
      <path
         id="path3967"
         style="fill:#3a6ad4;fill-opacity:1;stroke:none;stroke-width:5.46805;stroke-linecap:round;stroke-miterlimit:4;stroke-dasharray:none;paint-order:fill markers stroke"
         d="m -390.86142,532.50167 v 35.97704 l 298.451903,0.0105 c 160.982815,0.006 160.982815,-35.98165 0,-35.98366 z m 0,0 v 35.97704 l -298.45198,0.0105 c -32.40041,0.001 -32.40041,-35.98324 0,-35.98366 z"
         sodipodi:nodetypes="ccccccccsc" />
    </g>
  </g>
</svg>
